<svg id="Layer_1" data-name="Layer 1" xmlns="http://www.w3.org/2000/svg" viewBox="0 0 1200 1200"><title>32265_Raj Photo Video_DV</title><path d="M310.82,614.91a3.33,3.33,0,0,1-3-4.75l18.73-39.93s-19.51,4.09-20.4,9.67c-.43,2.66,5.56,5.27,2.89,10.41-.42.81-.94,1.93-1.56,3.23a1.06,1.06,0,0,1-1.75.48,12.23,12.23,0,0,1-3.84-5.6c-2-1-8.61,2.86-8.61,2.86s.84,7.59,2.86,8.61a12.25,12.25,0,0,1,7-.22c.72.23.81.78.62,1.13-3.26,5.78-7.62,11.48-12.78,11.48-6.16,0-11.35-3.44-11.35-10.65s6.25-7.72,7.05-10.86c.57-2.2-2.84-6.42-5.35-9.17l2.53-2-4.42-5.71-5.71,4.43,1.93,2.48c-3.1,1.95-7.37,5-7.43,7.25-.09,3.24,5.72,5.5,3.67,12.42s-10.29,9.31-16.22,8.61c-4.59-.55-12.24-3.82-13.94-12.7-.2-1.5.6-2,1.55-1.87a13.91,13.91,0,0,1,6.72,3.71c2.55,0,7.22-7.22,7.22-7.22s-4.67-7.21-7.22-7.21a13.91,13.91,0,0,1-5.71,3.43c-.6.19-2.11-.09-1.29-1.83,2.71-5.51,7.95-7.93,8.33-11.89s-6.84-11-11.74-15.23l3.54-3.54-7.88-7.88-7.89,7.88,3.54,3.54c-4.89,4.2-12.13,11.14-11.74,15.23s5.59,6.37,8.31,11.85c.87,1.78-.66,2.06-1.27,1.87a13.81,13.81,0,0,1-5.71-3.43c-2.55,0-7.22,7.21-7.22,7.21s4.67,7.22,7.22,7.22a13.91,13.91,0,0,1,6.72-3.71c.95-.16,1.76.37,1.55,1.88-1.7,8.87-9.36,12.13-13.94,12.68-5.93.72-14.16-1.69-16.22-8.6s3.76-9.18,3.67-12.42c-.06-2.22-4.33-5.3-7.43-7.25l1.93-2.48-5.7-4.43-4.43,5.71,2.53,2c-2.51,2.75-5.92,7-5.35,9.17.8,3.14,7.05,3.65,7.05,10.86s-5.19,10.65-11.35,10.65c-5.16,0-9.51-5.7-12.78-11.48-.19-.34-.11-.9.62-1.13a12.25,12.25,0,0,1,7,.22c2-1,2.86-8.61,2.86-8.61s-6.58-3.87-8.6-2.86a12.33,12.33,0,0,1-3.85,5.6,1.06,1.06,0,0,1-1.75-.48h0c-.62-1.3-1.14-2.42-1.56-3.23-2.66-5.14,3.32-7.75,2.89-10.42-.89-5.57-20.4-9.66-20.4-9.66l18.73,39.93a3.34,3.34,0,0,1-3,4.76h0a3.34,3.34,0,0,0-3.19,4.34l9.94,31.52a3.35,3.35,0,0,0,3.19,2.33H300.88a3.35,3.35,0,0,0,3.19-2.34L314,619.26a3.26,3.26,0,0,0,.15-1A3.35,3.35,0,0,0,310.82,614.91Zm-12.56,29.51h-126l-5.89-18.48a12,12,0,0,0,3.48-3.57l.09-.14a16.77,16.77,0,0,0,9.58,3.08c7.54,0,13.63-3.24,17-8.56a25.93,25.93,0,0,0,16.21,5.52,26.3,26.3,0,0,0,3.09-.18,25.85,25.85,0,0,0,10.69-3.83c6.45-4.36,8.7-8.35,8.7-8.35s2.24,4,8.69,8.35a25.85,25.85,0,0,0,10.69,3.83,26.3,26.3,0,0,0,3.09.18A25.93,25.93,0,0,0,274,616.75c3.41,5.32,9.5,8.56,17,8.56a16.77,16.77,0,0,0,9.58-3.08l.09.14a12,12,0,0,0,3.48,3.57Z"/><path d="M226.08,641.2h18.39V622.8H226.08Zm9.2-15.42L241.5,632l-6.22,6.23L229.05,632Z"/><path d="M268.89,639.74H281.2V627.42H268.89ZM275,629.41l4.17,4.17L275,637.75l-4.16-4.17Z"/><path d="M256.68,626.26a5.74,5.74,0,0,1-5.74,5.74h0a5.75,5.75,0,0,1,5.74,5.75,5.75,5.75,0,0,1,5.75-5.75h0A5.74,5.74,0,0,1,256.68,626.26Z"/><path d="M213.87,626.26a5.74,5.74,0,0,1-5.74,5.74h0a5.75,5.75,0,0,1,5.74,5.75,5.75,5.75,0,0,1,5.74-5.75h0A5.74,5.74,0,0,1,213.87,626.26Z"/><path d="M292.13,629.9a3.69,3.69,0,0,1-3.69,3.68h0a3.69,3.69,0,0,1,3.69,3.68,3.68,3.68,0,0,1,3.68-3.68h0A3.68,3.68,0,0,1,292.13,629.9Z"/><path d="M178.43,629.9a3.69,3.69,0,0,1-3.69,3.68h0a3.69,3.69,0,0,1,3.69,3.68,3.68,3.68,0,0,1,3.68-3.68h0A3.68,3.68,0,0,1,178.43,629.9Z"/><path d="M189.35,639.74h12.31V627.42H189.35Zm6.16-10.33,4.17,4.17-4.17,4.17-4.17-4.17Z"/><path d="M409.8,630.69a23.48,23.48,0,0,1-2.94-3c-.74-.84-1.6-1.91-2.57-3.2s-1.92-2.59-2.86-3.91-1.72-2.41-2.34-3.31a11.77,11.77,0,0,1-.93-1.41,33.86,33.86,0,0,0-2.83-3.35,8.77,8.77,0,0,0-3.28-2.3,11.5,11.5,0,0,0,6.59-2.24,14.16,14.16,0,0,0,4.35-5.32,15.13,15.13,0,0,0,1.56-6.66,14.47,14.47,0,0,0-1.19-6.1,12.51,12.51,0,0,0-3.23-4.35,13.67,13.67,0,0,0-4.95-2.64,21,21,0,0,0-6.25-.9H367.05v.75h1a4.51,4.51,0,0,1,3.31,1.38,4.76,4.76,0,0,1,1.45,3.31v41.22a4.78,4.78,0,0,1-1.45,3.31,4.51,4.51,0,0,1-3.31,1.38h-1v.74h18.31v-.74h-.9a4.61,4.61,0,0,1-3.34-1.38,4.43,4.43,0,0,1-1.42-3.31v-44H381c.89,0,2,0,3.2,0a34.57,34.57,0,0,1,3.57.11,8.67,8.67,0,0,1,6.51,3c1.66,1.91,2.52,4.57,2.57,8a14.61,14.61,0,0,1,0,2.3,10.23,10.23,0,0,1-.34,1.86,10.47,10.47,0,0,1-2.71,5.06,9.55,9.55,0,0,1-4,2.31,18.37,18.37,0,0,1-4.13.67c-.89.05-1.67.06-2.34,0l-1.08,0v.74a5.24,5.24,0,0,1,3.42,1.53,17.52,17.52,0,0,1,2.83,3.46c.15.25.49.8,1,1.67s1.19,1.9,1.93,3.09l2.27,3.61c.77,1.22,1.47,2.29,2.09,3.24s1,1.58,1.23,1.93a19.59,19.59,0,0,0,3.42,3.46,15.43,15.43,0,0,0,4.76,2.53,19.69,19.69,0,0,0,6.32.93h5.21v-.74a9.53,9.53,0,0,1-3.75-.71A12.07,12.07,0,0,1,409.8,630.69Z"/><path d="M457.2,633.34h-.67v.74h19.05v-.74H475a6.9,6.9,0,0,1-3.53-1.08,7.48,7.48,0,0,1-2.63-2.9l-21-48.56h-.67a6.9,6.9,0,0,1-.44,2c-.3.9-.63,1.81-1,2.76s-.72,1.74-1,2.41l-.56,1.16-17.19,40.21a7.46,7.46,0,0,1-2.64,2.91,6.9,6.9,0,0,1-3.53,1.08h-.67v.74h15.25v-.74h-.67a3.17,3.17,0,0,1-1.74-.56,3.11,3.11,0,0,1-1.23-1.6,3.32,3.32,0,0,1,0-1.91l4.82-12.08h19.19l4.39,11.46h0c.59,1.49.52,2.64-.23,3.46A3.41,3.41,0,0,1,457.2,633.34Zm-19.72-18.68,8.79-22,8.42,22Z"/><path d="M486.85,582H474.42v.75h1a4.51,4.51,0,0,1,3.31,1.38,4.76,4.76,0,0,1,1.45,3.31v45.68a19.85,19.85,0,0,1-1,6.36,16.69,16.69,0,0,1-3,5.44,11.35,11.35,0,0,1-4.65,3.38V649a14,14,0,0,0,6-1,15.57,15.57,0,0,0,5-3.24,15,15,0,0,0,3.38-5,16.31,16.31,0,0,0,1.23-6.36V587.43a4.76,4.76,0,0,1,1.45-3.31,4.51,4.51,0,0,1,3.31-1.38h1V582h-5.95Z"/><path d="M545.85,583.74a20.6,20.6,0,0,0-9-1.75h-21.2l.07.75h.89a4.63,4.63,0,0,1,3.35,1.38,4.46,4.46,0,0,1,1.42,3.31v41.22A4.83,4.83,0,0,1,520,632a4.53,4.53,0,0,1-3.32,1.38h-1v.74h18.38v-.74h-1a4.49,4.49,0,0,1-3.31-1.38,4.78,4.78,0,0,1-1.45-3.31V584.52h7.36a9,9,0,0,1,7.26,3.06,12.36,12.36,0,0,1,2.64,8,12.51,12.51,0,0,1-.08,2.35,18,18,0,0,1-.37,2.12,11.21,11.21,0,0,1-2.64,4.83,10.36,10.36,0,0,1-3.72,2.53,13.87,13.87,0,0,1-3.79.9,23.29,23.29,0,0,1-4.13-.08V609a14.7,14.7,0,0,0,6.1,2,15.37,15.37,0,0,0,11.31-3.49,14.32,14.32,0,0,0,3.68-4.8,13.76,13.76,0,0,0,1.3-6.36,14.86,14.86,0,0,0-1.89-7.63A12.62,12.62,0,0,0,545.85,583.74Z"/><path d="M607.87,582H595.44v.75h1a4.65,4.65,0,0,1,3.35,1.38,4.45,4.45,0,0,1,1.41,3.31V607H572.82V587.43a4.76,4.76,0,0,1,1.45-3.31,4.51,4.51,0,0,1,3.31-1.38h1V582H560.17v.75h1a4.51,4.51,0,0,1,3.31,1.38,4.76,4.76,0,0,1,1.45,3.31v41.22a4.78,4.78,0,0,1-1.45,3.31,4.51,4.51,0,0,1-3.31,1.38h-1v.74h18.38v-.74h-1a4.51,4.51,0,0,1-3.31-1.38,4.78,4.78,0,0,1-1.45-3.31V609.53h28.35v19.12a4.46,4.46,0,0,1-1.41,3.31,4.65,4.65,0,0,1-3.35,1.38h-1v.74h18.38v-.74h-1a4.51,4.51,0,0,1-3.31-1.38,4.78,4.78,0,0,1-1.45-3.31V587.43a4.76,4.76,0,0,1,1.45-3.31,4.51,4.51,0,0,1,3.31-1.38h1V582h-6Z"/><path d="M663.12,584.3A30.29,30.29,0,0,0,648.57,581a29.9,29.9,0,0,0-14.4,3.35,24,24,0,0,0-9.67,9.45,31.22,31.22,0,0,0,0,28.57,24,24,0,0,0,9.67,9.45,29.79,29.79,0,0,0,14.4,3.35,30.17,30.17,0,0,0,14.55-3.35,24,24,0,0,0,9.67-9.45,31.22,31.22,0,0,0,0-28.57A24,24,0,0,0,663.12,584.3ZM665.83,621a20.07,20.07,0,0,1-6.84,8.56,19.14,19.14,0,0,1-20.73,0,19.93,19.93,0,0,1-6.88-8.56,35.42,35.42,0,0,1,0-25.89,20.05,20.05,0,0,1,6.88-8.56,19.14,19.14,0,0,1,20.73,0,20.19,20.19,0,0,1,6.84,8.56,35.29,35.29,0,0,1,0,25.89Z"/><path d="M718.25,581.7a28.2,28.2,0,0,1-3.46.22H688.38a28.73,28.73,0,0,1-3.43-.22c-1.24-.15-2.36-.32-3.38-.52a13.5,13.5,0,0,1-2.27-.6v10.57l.74-.08V590a5.29,5.29,0,0,1,1.53-3.91,5.55,5.55,0,0,1,3.91-1.6h12.65v44.2a4.79,4.79,0,0,1-1.46,3.31,4.49,4.49,0,0,1-3.31,1.38h-1v.74h18.37v-.74h-1A4.49,4.49,0,0,1,706.5,632a4.79,4.79,0,0,1-1.46-3.31v-44.2h12.65a5.55,5.55,0,0,1,3.91,1.6,5.29,5.29,0,0,1,1.53,3.91v1.11l.74.08V580.58a11.23,11.23,0,0,1-2.23.6C720.6,581.38,719.47,581.55,718.25,581.7Z"/><path d="M770.41,584.3A30.23,30.23,0,0,0,755.86,581a29.89,29.89,0,0,0-14.39,3.35,23.93,23.93,0,0,0-9.68,9.45,31.22,31.22,0,0,0,0,28.57,23.93,23.93,0,0,0,9.68,9.45,29.78,29.78,0,0,0,14.39,3.35,30.12,30.12,0,0,0,14.55-3.35,23.91,23.91,0,0,0,9.67-9.45,31.22,31.22,0,0,0,0-28.57A23.91,23.91,0,0,0,770.41,584.3ZM773.13,621a20,20,0,0,1-6.85,8.56,19.12,19.12,0,0,1-20.72,0,19.86,19.86,0,0,1-6.88-8.56,35.29,35.29,0,0,1,0-25.89,20,20,0,0,1,6.88-8.56,19.12,19.12,0,0,1,20.72,0,20.14,20.14,0,0,1,6.85,8.56,35.42,35.42,0,0,1,0,25.89Z"/><path d="M848.31,582.74H849a3.4,3.4,0,0,1,2.53,1.19,2.82,2.82,0,0,1,.49,2.81l-15.42,36.84L822,587.35h0c-.55-1.49-.46-2.63.26-3.42a3.29,3.29,0,0,1,2.49-1.19h.67V582H806.42v.75h.6a7.12,7.12,0,0,1,3.57,1.08,7.43,7.43,0,0,1,2.93,3.51l21.4,47.94h.67a12.37,12.37,0,0,1,.48-2,27.3,27.3,0,0,1,1-2.75c.39-.94.75-1.75,1.08-2.42a5.81,5.81,0,0,0,.48-1.15l17.69-39.51h0a7.82,7.82,0,0,1,3-3.61,7,7,0,0,1,3.5-1.08h.67V582H848.31Z"/><path d="M884,582H871.6v.75h1a4.51,4.51,0,0,1,3.31,1.38,4.76,4.76,0,0,1,1.45,3.31v41.22a4.78,4.78,0,0,1-1.45,3.31,4.51,4.51,0,0,1-3.31,1.38h-1v.74H890v-.74h-1A4.51,4.51,0,0,1,885.7,632a4.78,4.78,0,0,1-1.45-3.31V587.43a4.76,4.76,0,0,1,1.45-3.31,4.51,4.51,0,0,1,3.31-1.38h1V582h-6Z"/><path d="M938.12,585.19a30.54,30.54,0,0,0-14.36-3.2H897.94l.08.75h.89a4.65,4.65,0,0,1,3.35,1.38,4.45,4.45,0,0,1,1.41,3.31v41.22a4.78,4.78,0,0,1-1.45,3.31,4.51,4.51,0,0,1-3.31,1.38h-1v.74h25.82a30.19,30.19,0,0,0,14.36-3.24,23.57,23.57,0,0,0,9.52-9.07,29.28,29.28,0,0,0,0-27.5A23.33,23.33,0,0,0,938.12,585.19Zm2.75,35.27a18.29,18.29,0,0,1-17.41,11.09H910.59v-47h12.87A18.76,18.76,0,0,1,934,587.43a19,19,0,0,1,6.92,8.18,32.61,32.61,0,0,1,0,24.85Z"/><path d="M990.8,626.49a11.59,11.59,0,0,1-4.31,3.68,14.41,14.41,0,0,1-6.48,1.31H969.67V609.67h11.68a4.22,4.22,0,0,1,3.2,1.34,4.53,4.53,0,0,1,1.27,3.2v1h.74V601.64h-.74v.89a4.51,4.51,0,0,1-1.27,3.2,4.43,4.43,0,0,1-3.2,1.41H969.67V584.6h14.71a5.31,5.31,0,0,1,4.78,5.43v1.19h.75V580.66a12.15,12.15,0,0,1-2.23.59c-1,.2-2.17.37-3.39.52a28.2,28.2,0,0,1-3.46.22H957l.08.75H958a4.65,4.65,0,0,1,3.35,1.38,4.45,4.45,0,0,1,1.41,3.31v41.22A4.78,4.78,0,0,1,961.3,632a4.51,4.51,0,0,1-3.31,1.38h-1v.74h33.41l4-13.1h-.75A23.89,23.89,0,0,1,990.8,626.49Z"/><path d="M1052.52,593.75a23.91,23.91,0,0,0-9.67-9.45A30.23,30.23,0,0,0,1028.3,581a29.89,29.89,0,0,0-14.39,3.35,23.93,23.93,0,0,0-9.68,9.45,31.22,31.22,0,0,0,0,28.57,23.93,23.93,0,0,0,9.68,9.45,29.78,29.78,0,0,0,14.39,3.35,30.12,30.12,0,0,0,14.55-3.35,23.91,23.91,0,0,0,9.67-9.45,31.22,31.22,0,0,0,0-28.57Zm-7,27.23a20,20,0,0,1-6.85,8.56,19.12,19.12,0,0,1-20.72,0,20,20,0,0,1-6.89-8.56,35.42,35.42,0,0,1,0-25.89,20.07,20.07,0,0,1,6.89-8.56,19.12,19.12,0,0,1,20.72,0,20.14,20.14,0,0,1,6.85,8.56,35.42,35.42,0,0,1,0,25.89Z"/></svg>